<svg xmlns="http://www.w3.org/2000/svg" viewBox="0 0 1200 630" width="1200" height="630">
  <defs>
    <linearGradient id="bg" x1="0%" y1="0%" x2="100%" y2="100%">
      <stop offset="0%" style="stop-color:#0a0a0a"/>
      <stop offset="100%" style="stop-color:#0f0f1a"/>
    </linearGradient>
    <linearGradient id="accent" x1="0%" y1="0%" x2="100%" y2="0%">
      <stop offset="0%" style="stop-color:#6366f1"/>
      <stop offset="100%" style="stop-color:#818cf8"/>
    </linearGradient>
  </defs>

  <!-- Background -->
  <rect width="1200" height="630" fill="url(#bg)"/>

  <!-- Subtle grid lines -->
  <line x1="0" y1="315" x2="1200" y2="315" stroke="#1a1a2e" stroke-width="1"/>
  <line x1="600" y1="0" x2="600" y2="630" stroke="#1a1a2e" stroke-width="1"/>

  <!-- Logo icon — rounded square (200x200, center at 188,315) -->
  <rect x="88" y="215" width="200" height="200" rx="40" fill="#6366f1"/>
  <!--
    Flag icon: visual size 16×19, center (12, 12.5)
    Scale = 1.7 * (200/64) = 5.3125, centered at (188, 315):
      tx = 188 - 12*5.3125 = 124.25
      ty = 315 - 12.5*5.3125 = 248.59
  -->
  <g transform="translate(124.25, 248.59) scale(5.3125)" stroke="#ffffff" stroke-width="0.9" stroke-linecap="round" stroke-linejoin="round" fill="none">
    <path d="M4 15s1-1 4-1 5 2 8 2 4-1 4-1V3s-1 1-4 1-5-2-8-2-4 1-4 1z"/>
    <line x1="4" y1="22" x2="4" y2="15"/>
  </g>

  <!-- VibeFlags title -->
  <text x="340" y="295" font-family="system-ui, -apple-system, sans-serif" font-size="88" font-weight="700" fill="#fafafa" letter-spacing="-2">VibeFlags</text>

  <!-- Tagline -->
  <text x="340" y="365" font-family="system-ui, -apple-system, sans-serif" font-size="32" font-weight="400" fill="#a3a3a3">Offline-first feature flags for vibe coding</text>

  <!-- Accent underline -->
  <rect x="340" y="385" width="580" height="3" rx="2" fill="url(#accent)" opacity="0.7"/>

  <!-- Bottom pills -->
  <rect x="340" y="430" width="160" height="44" rx="22" fill="#1a1a2e" stroke="#2e2e4e" stroke-width="1"/>
  <text x="420" y="458" text-anchor="middle" font-family="system-ui, -apple-system, sans-serif" font-size="20" fill="#818cf8">Zero-config</text>

  <rect x="518" y="430" width="160" height="44" rx="22" fill="#1a1a2e" stroke="#2e2e4e" stroke-width="1"/>
  <text x="598" y="458" text-anchor="middle" font-family="system-ui, -apple-system, sans-serif" font-size="20" fill="#818cf8">No backend</text>

  <rect x="696" y="430" width="160" height="44" rx="22" fill="#1a1a2e" stroke="#2e2e4e" stroke-width="1"/>
  <text x="776" y="458" text-anchor="middle" font-family="system-ui, -apple-system, sans-serif" font-size="20" fill="#818cf8">AI-native</text>
</svg>
